<?xml version="1.0" encoding="UTF-8" standalone="no"?>
<!DOCTYPE svg PUBLIC "-//W3C//DTD SVG 1.1//EN" "http://www.w3.org/Graphics/SVG/1.1/DTD/svg11.dtd">
<svg version="1.1" xmlns="http://www.w3.org/2000/svg" xmlns:xlink="http://www.w3.org/1999/xlink" preserveAspectRatio="xMidYMid meet" viewBox="0 0 626.667 345" width="626.67" height="345"><defs><path d="M118.24 0.12L119.73 0.27L121.2 0.48L122.65 0.75L124.09 1.07L125.5 1.45L126.89 1.89L128.25 2.37L129.59 2.91L130.9 3.49L132.19 4.13L133.44 4.81L134.67 5.54L135.87 6.32L137.03 7.14L138.16 8L139.26 8.9L140.32 9.85L141.34 10.83L142.32 11.85L143.27 12.91L144.17 14.01L145.03 15.14L145.85 16.3L146.63 17.5L147.36 18.72L148.04 19.98L148.68 21.27L149.26 22.58L149.8 23.92L150.28 25.28L150.72 26.67L151.09 28.08L151.42 29.52L151.68 30.97L151.89 32.44L152.05 33.93L152.14 35.44L152.17 36.96L152.14 38.48L152.05 39.99L151.89 41.48L151.68 42.95L151.42 44.41L151.09 45.84L150.72 47.25L150.28 48.64L149.8 50L149.26 51.34L148.68 52.65L148.04 53.94L147.36 55.2L146.63 56.42L145.85 57.62L145.03 58.78L144.17 59.91L143.27 61.01L142.32 62.07L141.34 63.09L140.32 64.07L139.26 65.02L138.85 65.36L244.08 228L491.36 228L492.76 226.02L494.5 223.73L496.33 221.51L498.24 219.37L500.24 217.3L502.3 215.31L504.45 213.4L506.67 211.57L508.95 209.82L511.31 208.16L513.73 206.59L516.21 205.12L518.76 203.73L521.36 202.45L524.02 201.26L526.73 200.18L529.49 199.19L532.3 198.32L535.16 197.55L538.06 196.9L541 196.36L543.98 195.93L546.99 195.63L550.04 195.44L553.12 195.38L556.21 195.44L559.26 195.63L562.27 195.93L565.25 196.36L568.19 196.9L571.09 197.55L573.95 198.32L576.76 199.19L579.52 200.18L582.23 201.26L584.89 202.45L587.49 203.73L590.04 205.12L592.52 206.59L594.94 208.16L597.29 209.82L599.58 211.57L601.8 213.4L603.94 215.31L606.01 217.3L608.01 219.37L609.92 221.51L611.75 223.73L613.49 226.02L615.15 228.37L616.72 230.79L618.2 233.28L619.58 235.82L620.87 238.42L622.05 241.08L623.14 243.79L624.12 246.55L624.99 249.36L625.76 252.22L626.41 255.12L626.96 258.06L627.38 261.04L627.69 264.06L627.87 267.11L627.94 270.19L627.87 273.27L627.69 276.32L627.38 279.34L626.96 282.32L626.41 285.26L625.76 288.16L624.99 291.01L624.12 293.82L623.14 296.59L622.05 299.3L620.87 301.95L619.58 304.56L618.2 307.1L616.72 309.58L615.15 312L613.49 314.36L611.75 316.65L609.92 318.86L608.01 321.01L606.01 323.08L603.94 325.07L601.8 326.98L599.58 328.81L597.29 330.56L594.94 332.22L592.52 333.78L590.04 335.26L587.49 336.64L584.89 337.93L582.23 339.12L579.52 340.2L576.76 341.18L573.95 342.06L571.09 342.82L568.19 343.48L565.25 344.02L562.27 344.45L559.26 344.75L556.21 344.94L553.12 345L550.04 344.94L546.99 344.75L543.98 344.45L541 344.02L538.06 343.48L535.16 342.82L532.3 342.06L529.49 341.18L526.73 340.2L524.02 339.12L521.36 337.93L518.76 336.64L516.21 335.26L513.73 333.78L511.31 332.22L508.95 330.56L506.67 328.81L504.45 326.98L502.3 325.07L500.24 323.08L498.24 321.01L496.33 318.86L494.5 316.65L492.8 314.41L197.77 317.95L41.02 82.1L41.48 81.82L41.48 81.82L39.99 81.98L38.48 82.07L36.96 82.1L35.44 82.07L33.93 81.98L32.44 81.82L30.97 81.61L29.52 81.35L28.08 81.02L26.67 80.65L25.28 80.21L23.92 79.73L22.58 79.19L21.27 78.61L19.98 77.97L18.72 77.29L17.5 76.56L16.3 75.78L15.14 74.96L14.01 74.1L12.91 73.2L11.85 72.25L10.83 71.27L9.85 70.25L8.9 69.19L8 68.09L7.14 66.96L6.32 65.8L5.54 64.6L4.81 63.37L4.13 62.12L3.49 60.83L2.91 59.52L2.37 58.18L1.89 56.82L1.45 55.43L1.07 54.02L0.75 52.58L0.48 51.13L0.27 49.66L0.12 48.17L0.03 46.66L0 45.14L0.03 43.62L0.12 42.11L0.27 40.62L0.48 39.15L0.75 37.69L1.07 36.26L1.45 34.85L1.89 33.46L2.37 32.1L2.91 30.76L3.49 29.44L4.13 28.16L4.81 26.9L5.54 25.68L6.32 24.48L7.14 23.32L8 22.19L8.9 21.09L9.85 20.03L10.83 19.01L11.85 18.02L12.91 17.08L14.01 16.18L15.14 15.31L16.3 14.49L17.5 13.72L18.72 12.99L19.98 12.31L21.27 11.67L22.58 11.08L23.92 10.55L25.28 10.06L26.67 9.63L28.08 9.25L29.52 8.93L30.97 8.66L32.44 8.45L33.93 8.3L35.44 8.21L36.96 8.18L38.48 8.21L39.99 8.3L41.48 8.45L42.95 8.66L44.41 8.93L45.84 9.25L47.25 9.63L48.64 10.06L50 10.55L51.34 11.08L52.65 11.67L53.94 12.31L55.2 12.99L56.42 13.72L57.62 14.49L58.78 15.31L59.91 16.18L61.01 17.08L62.07 18.02L63.09 19.01L64.07 20.03L65.02 21.09L65.92 22.19L66.79 23.32L67.6 24.48L68.38 25.68L69.11 26.9L69.79 28.16L70.43 29.44L71.01 30.76L71.55 32.1L72.04 33.46L72.47 34.85L72.85 36.26L73.17 37.69L73.44 39.15L73.65 40.62L73.8 42.11L73.89 43.62L73.92 45.14L73.89 46.66L73.8 48.17L73.65 49.66L73.44 51.13L73.17 52.58L72.85 54.02L72.47 55.43L72.04 56.82L71.55 58.18L71.01 59.52L70.43 60.83L69.79 62.12L69.11 63.37L68.38 64.6L67.6 65.8L66.79 66.96L65.92 68.09L65.02 69.19L64.07 70.25L63.09 71.27L62.07 72.25L61.98 72.33L213.8 291.23L481.32 291.23L481.25 291.01L480.49 288.16L479.83 285.26L479.29 282.32L478.87 279.34L478.56 276.32L478.38 273.27L478.31 270.19L478.38 267.11L478.56 264.06L478.87 261.04L479.29 258.06L479.75 255.61L228.05 255.61L114.28 73.9L113.69 73.89L112.18 73.8L110.69 73.65L109.22 73.44L107.76 73.17L106.33 72.85L104.92 72.47L103.53 72.04L102.17 71.55L100.83 71.01L99.51 70.43L98.23 69.79L96.97 69.11L95.75 68.38L94.55 67.6L93.39 66.79L92.26 65.92L91.16 65.02L90.1 64.07L89.08 63.09L88.09 62.07L87.15 61.01L86.25 59.91L85.38 58.78L84.56 57.62L83.79 56.42L83.06 55.2L82.38 53.94L81.74 52.65L81.15 51.34L80.62 50L80.13 48.64L79.7 47.25L79.32 45.84L79 44.41L78.73 42.95L78.52 41.48L78.37 39.99L78.28 38.48L78.25 36.96L78.28 35.44L78.37 33.93L78.52 32.44L78.73 30.97L79 29.52L79.32 28.08L79.7 26.67L80.13 25.28L80.62 23.92L81.15 22.58L81.74 21.27L82.38 19.98L83.06 18.72L83.79 17.5L84.56 16.3L85.38 15.14L86.25 14.01L87.15 12.91L88.09 11.85L89.08 10.83L90.1 9.85L91.16 8.9L92.26 8L93.39 7.14L94.55 6.32L95.75 5.54L96.97 4.81L98.23 4.13L99.51 3.49L100.83 2.91L102.17 2.37L103.53 1.89L104.92 1.45L106.33 1.07L107.76 0.75L109.22 0.48L110.69 0.27L112.18 0.12L113.69 0.03L115.21 0L116.73 0.03L118.24 0.12Z" id="apdGZZiY2"></path><linearGradient id="gradientb3fveuuAXs" gradientUnits="userSpaceOnUse" x1="74.35" y1="16.04" x2="551.7" y2="271.42"><stop style="stop-color: #33ff99;stop-opacity: 1" offset="0%"></stop><stop style="stop-color: #01a5b3;stop-opacity: 1" offset="100%"></stop></linearGradient></defs><g><g><g><use xlink:href="#apdGZZiY2" opacity="1" fill="url(#gradientb3fveuuAXs)"></use></g></g></g></svg>