<?xml version="1.0" encoding="UTF-8" standalone="no"?>
<!DOCTYPE svg PUBLIC "-//W3C//DTD SVG 1.1//EN" "http://www.w3.org/Graphics/SVG/1.1/DTD/svg11.dtd">
<svg version="1.1" xmlns="http://www.w3.org/2000/svg" xmlns:xlink="http://www.w3.org/1999/xlink" preserveAspectRatio="xMidYMid meet" viewBox="0 0 626.667 345" width="626.67" height="345"><defs><path d="M515.76 0.12L517.25 0.27L518.72 0.48L520.17 0.75L521.6 1.07L523.02 1.45L524.4 1.89L525.77 2.37L527.11 2.91L528.42 3.49L529.71 4.13L530.96 4.81L532.19 5.54L533.39 6.32L534.55 7.14L535.68 8L536.77 8.9L537.83 9.85L538.86 10.83L539.84 11.85L540.79 12.91L541.69 14.01L542.55 15.14L543.37 16.3L544.15 17.5L544.88 18.72L545.56 19.98L546.19 21.27L546.78 22.58L547.32 23.92L547.8 25.28L548.23 26.67L548.61 28.08L548.94 29.52L549.2 30.97L549.41 32.44L549.56 33.93L549.66 35.44L549.69 36.96L549.66 38.48L549.56 39.99L549.41 41.48L549.2 42.95L548.94 44.41L548.61 45.84L548.23 47.25L547.8 48.64L547.32 50L546.78 51.34L546.19 52.65L545.56 53.94L544.88 55.2L544.15 56.42L543.37 57.62L542.55 58.78L541.69 59.91L540.79 61.01L539.84 62.07L538.86 63.09L537.83 64.07L536.77 65.02L535.68 65.92L534.55 66.79L533.39 67.6L532.19 68.38L530.96 69.11L529.71 69.79L528.42 70.43L527.11 71.01L525.77 71.55L524.4 72.04L523.02 72.47L521.6 72.85L520.17 73.17L518.72 73.44L517.25 73.65L515.76 73.8L514.25 73.89L513.66 73.9L399.88 255.61L148.19 255.61L148.64 258.06L149.07 261.04L149.37 264.06L149.56 267.11L149.62 270.19L149.56 273.27L149.37 276.32L149.07 279.34L148.64 282.32L148.1 285.26L147.45 288.16L146.68 291.01L146.61 291.23L414.13 291.23L565.95 72.33L565.87 72.25L564.85 71.27L563.86 70.25L562.92 69.19L562.01 68.09L561.15 66.96L560.33 65.8L559.56 64.6L558.83 63.37L558.14 62.12L557.51 60.83L556.92 59.52L556.39 58.18L555.9 56.82L555.47 55.43L555.09 54.02L554.77 52.58L554.5 51.13L554.29 49.66L554.14 48.17L554.05 46.66L554.02 45.14L554.05 43.62L554.14 42.11L554.29 40.62L554.5 39.15L554.77 37.69L555.09 36.26L555.47 34.85L555.9 33.46L556.39 32.1L556.92 30.76L557.51 29.44L558.14 28.16L558.83 26.9L559.56 25.68L560.33 24.48L561.15 23.32L562.01 22.19L562.92 21.09L563.86 20.03L564.85 19.01L565.87 18.02L566.93 17.08L568.02 16.18L569.15 15.31L570.32 14.49L571.51 13.72L572.74 12.99L574 12.31L575.28 11.67L576.59 11.08L577.93 10.55L579.3 10.06L580.69 9.63L582.1 9.25L583.53 8.93L584.98 8.66L586.46 8.45L587.95 8.3L589.45 8.21L590.98 8.18L592.5 8.21L594 8.3L595.49 8.45L596.97 8.66L598.42 8.93L599.85 9.25L601.26 9.63L602.65 10.06L604.02 10.55L605.36 11.08L606.67 11.67L607.95 12.31L609.21 12.99L610.44 13.72L611.63 14.49L612.8 15.31L613.93 16.18L615.02 17.08L616.08 18.02L617.11 19.01L618.09 20.03L619.03 21.09L619.94 22.19L620.8 23.32L621.62 24.48L622.39 25.68L623.12 26.9L623.81 28.16L624.44 29.44L625.03 30.76L625.57 32.1L626.05 33.46L626.48 34.85L626.86 36.26L627.18 37.69L627.45 39.15L627.66 40.62L627.81 42.11L627.9 43.62L627.94 45.14L627.9 46.66L627.81 48.17L627.66 49.66L627.45 51.13L627.18 52.58L626.86 54.02L626.48 55.43L626.05 56.82L625.57 58.18L625.03 59.52L624.44 60.83L623.81 62.12L623.12 63.37L622.39 64.6L621.62 65.8L620.8 66.96L619.94 68.09L619.03 69.19L618.09 70.25L617.11 71.27L616.08 72.25L615.02 73.2L613.93 74.1L612.8 74.96L611.63 75.78L610.44 76.56L609.21 77.29L607.95 77.97L606.67 78.61L605.36 79.19L604.02 79.73L602.65 80.21L601.26 80.65L599.85 81.02L598.42 81.35L596.97 81.61L595.49 81.82L594 81.98L592.5 82.07L590.98 82.1L589.45 82.07L587.95 81.98L586.46 81.82L586.45 81.82L586.91 82.1L430.16 317.95L135.14 314.41L133.43 316.65L131.6 318.86L129.69 321.01L127.7 323.08L125.63 325.07L123.49 326.98L121.27 328.81L118.98 330.56L116.63 332.22L114.21 333.78L111.72 335.26L109.18 336.64L106.58 337.93L103.92 339.12L101.21 340.2L98.45 341.18L95.64 342.06L92.78 342.82L89.88 343.48L86.94 344.02L83.96 344.45L80.94 344.75L77.89 344.94L74.81 345L71.73 344.94L68.68 344.75L65.66 344.45L62.68 344.02L59.74 343.48L56.84 342.82L53.99 342.06L51.18 341.18L48.41 340.2L45.7 339.12L43.05 337.93L40.44 336.64L37.9 335.26L35.42 333.78L33 332.22L30.64 330.56L28.35 328.81L26.14 326.98L23.99 325.07L21.92 323.08L19.93 321.01L18.02 318.86L16.19 316.65L14.44 314.36L12.78 312L11.22 309.58L9.74 307.1L8.36 304.56L7.07 301.95L5.88 299.3L4.8 296.59L3.82 293.82L2.94 291.01L2.18 288.16L1.52 285.26L0.98 282.32L0.55 279.34L0.25 276.32L0.06 273.27L0 270.19L0.06 267.11L0.25 264.06L0.55 261.04L0.98 258.06L1.52 255.12L2.18 252.22L2.94 249.36L3.82 246.55L4.8 243.79L5.88 241.08L7.07 238.42L8.36 235.82L9.74 233.28L11.22 230.79L12.78 228.37L14.44 226.02L16.19 223.73L18.02 221.51L19.93 219.37L21.92 217.3L23.99 215.31L26.14 213.4L28.35 211.57L30.64 209.82L33 208.16L35.42 206.59L37.9 205.12L40.44 203.73L43.05 202.45L45.7 201.26L48.41 200.18L51.18 199.19L53.99 198.32L56.84 197.55L59.74 196.9L62.68 196.36L65.66 195.93L68.68 195.63L71.73 195.44L74.81 195.38L77.89 195.44L80.94 195.63L83.96 195.93L86.94 196.36L89.88 196.9L92.78 197.55L95.64 198.32L98.45 199.19L101.21 200.18L103.92 201.26L106.58 202.45L109.18 203.73L111.72 205.12L114.21 206.59L116.63 208.16L118.98 209.82L121.27 211.57L123.49 213.4L125.63 215.31L127.7 217.3L129.69 219.37L131.6 221.51L133.43 223.73L135.18 226.02L136.57 228L383.85 228L489.09 65.36L488.68 65.02L487.62 64.07L486.6 63.09L485.61 62.07L484.67 61.01L483.76 59.91L482.9 58.78L482.08 57.62L481.31 56.42L480.58 55.2L479.89 53.94L479.26 52.65L478.67 51.34L478.14 50L477.65 48.64L477.22 47.25L476.84 45.84L476.52 44.41L476.25 42.95L476.04 41.48L475.89 39.99L475.8 38.48L475.77 36.96L475.8 35.44L475.89 33.93L476.04 32.44L476.25 30.97L476.52 29.52L476.84 28.08L477.22 26.67L477.65 25.28L478.14 23.92L478.67 22.58L479.26 21.27L479.89 19.98L480.58 18.72L481.31 17.5L482.08 16.3L482.9 15.14L483.76 14.01L484.67 12.91L485.61 11.85L486.6 10.83L487.62 9.85L488.68 8.9L489.77 8L490.9 7.14L492.07 6.32L493.26 5.54L494.49 4.81L495.75 4.13L497.03 3.49L498.35 2.91L499.69 2.37L501.05 1.89L502.44 1.45L503.85 1.07L505.28 0.75L506.74 0.48L508.21 0.27L509.7 0.12L511.2 0.03L512.73 0L514.25 0.03L515.76 0.12Z" id="d2SQdUCioT"></path><linearGradient id="gradientfnrdI9B1Z" gradientUnits="userSpaceOnUse" x1="553.59" y1="16.04" x2="76.23" y2="271.42"><stop style="stop-color: #33ff99;stop-opacity: 1" offset="0%"></stop><stop style="stop-color: #01a5b3;stop-opacity: 1" offset="100%"></stop></linearGradient></defs><g><g><g><use xlink:href="#d2SQdUCioT" opacity="1" fill="url(#gradientfnrdI9B1Z)"></use></g></g></g></svg>