<?xml version="1.0" encoding="UTF-8" standalone="no"?>
<!DOCTYPE svg PUBLIC "-//W3C//DTD SVG 1.1//EN" "http://www.w3.org/Graphics/SVG/1.1/DTD/svg11.dtd">
<svg version="1.1" xmlns="http://www.w3.org/2000/svg" xmlns:xlink="http://www.w3.org/1999/xlink" preserveAspectRatio="xMidYMid meet" viewBox="0 0 177 265" width="177" height="265"><defs><path d="M83.27 213.93L106.43 213.93L106.91 212.87L107.55 211.58L108.23 210.31L108.97 209.08L109.75 207.88L110.57 206.71L111.44 205.57L112.35 204.47L113.3 203.4L114.28 202.38L115.31 201.39L116.38 200.44L117.48 199.53L118.62 198.66L119.79 197.84L120.99 197.06L122.22 196.32L123.49 195.64L124.78 195L126.1 194.41L127.45 193.87L128.82 193.38L130.21 192.95L131.63 192.57L133.07 192.24L134.53 191.97L136.01 191.76L137.51 191.61L139.03 191.52L140.56 191.49L142.09 191.52L143.6 191.61L145.1 191.76L146.58 191.97L148.04 192.24L149.48 192.57L150.9 192.95L152.3 193.38L153.67 193.87L155.02 194.41L156.34 195L157.63 195.64L158.89 196.32L160.13 197.06L161.33 197.84L162.5 198.66L163.64 199.53L164.74 200.44L165.8 201.39L166.83 202.38L167.82 203.4L168.77 204.47L169.68 205.57L170.55 206.71L171.37 207.88L172.15 209.08L172.88 210.31L173.57 211.58L174.21 212.87L174.8 214.19L175.34 215.54L175.83 216.91L176.26 218.3L176.64 219.72L176.97 221.16L177.24 222.62L177.45 224.1L177.6 225.6L177.69 227.12L177.72 228.65L177.69 230.18L177.6 231.7L177.45 233.19L177.24 234.67L176.97 236.13L176.64 237.58L176.26 238.99L175.83 240.39L175.34 241.76L174.8 243.11L174.21 244.43L173.57 245.72L172.88 246.99L172.15 248.22L171.37 249.42L170.55 250.59L169.68 251.73L168.77 252.83L167.82 253.89L166.83 254.92L165.8 255.91L164.74 256.86L163.64 257.77L162.5 258.64L161.33 259.46L160.13 260.24L158.89 260.98L157.63 261.66L156.34 262.3L155.02 262.89L153.67 263.43L152.3 263.92L150.9 264.35L149.48 264.73L148.04 265.06L146.58 265.33L145.1 265.54L143.6 265.69L142.09 265.78L140.56 265.81L139.03 265.78L137.51 265.69L136.01 265.54L134.53 265.33L133.07 265.06L131.63 264.73L130.21 264.35L128.82 263.92L127.45 263.43L126.1 262.89L124.78 262.3L123.49 261.66L122.22 260.98L120.99 260.24L119.79 259.46L118.62 258.64L117.48 257.77L116.38 256.86L115.31 255.91L114.28 254.92L113.3 253.89L112.35 252.83L111.44 251.73L110.57 250.59L109.75 249.42L108.97 248.22L108.44 247.34L70.24 247.34L70.24 246.32L69.57 247.34L0 201.75L0.47 201.03L0 201.03L0 0L35.46 0L35.46 182.59L83.27 213.93Z" id="b360N31eyX"></path></defs><g><g><g><use xlink:href="#b360N31eyX" opacity="1" fill="#33ff99" fill-opacity="1"></use></g></g></g></svg>